Coordinates
version=1
nRows=16
nColumns=30
inDegrees=yes

Units are S.I. units (second, meters, Newtons, ...)
Angles are in degrees.

endheader
time	floatyaw	floatroll	floatpitch	floatx	floaty	floatz	pro_sup_l	deviation_l	flexion_l	cmc_flexion_l	cmc_abduction_l	mp_flexion_l	ip_flexion_l	2mcp_flexion_l	2mcp_abduction_l	2pm_flexion_l	2md_flexion_l	3mcp_flexion_l	3mcp_abduction_l	3pm_flexion_l	3md_flexion_l	4mcp_flexion_l	4mcp_abduction_l	4pm_flexion_l	4md_flexion_l	5mcp_flexion_l	5mcp_abduction_l	5pm_flexion_l	5md_flexion_l
-0.495000	-160.147433	-5.066637	-73.570646	0.059472	-0.172326	-0.034474	106.467689	8.804379	-1.506016	13.885177	8.665098	-26.304179	-42.564442	31.602054	8.733860	45.479114	34.477685	26.556523	4.372623	48.233905	32.108492	19.543169	-4.654697	56.119545	39.313322	9.375196	-9.858902	65.194120	46.315942
-0.485000	-160.147433	-5.066637	-73.570646	0.058737	-0.171724	-0.035498	106.617782	8.996600	-1.508719	13.921408	8.759533	-26.347634	-42.721365	31.631451	8.764450	45.535571	34.521890	26.626685	4.391297	48.453455	32.188595	19.838494	-4.671535	56.088105	39.293328	9.545782	-9.855777	65.310508	46.336563
-0.475000	-160.147433	-5.066637	-73.570646	0.057855	-0.170988	-0.036692	106.760121	9.259342	-1.493494	13.952794	8.815875	-26.376851	-42.820613	31.647794	8.795765	45.593188	34.591459	26.714340	4.411464	48.598331	32.234010	20.086503	-4.685603	56.032752	39.313976	9.671808	-9.838462	65.404788	46.342052
-0.465000	-160.147433	-5.066637	-73.570646	0.056778	-0.170089	-0.038080	106.870301	9.613367	-1.468229	13.975880	8.853766	-26.397054	-42.880152	31.666706	8.817597	45.629667	34.717720	26.825226	4.430911	48.654957	32.242721	20.302812	-4.691511	55.931302	39.408182	9.780222	-9.808542	65.467584	46.339258
-0.455000	-160.147433	-5.066637	-73.570646	0.055451	-0.168995	-0.039686	106.924477	10.072236	-1.453143	13.989722	8.895413	-26.413255	-42.921785	31.686159	8.816470	45.631453	34.915282	26.950891	4.448696	48.634663	32.220703	20.499178	-4.684231	55.765771	39.588768	9.893998	-9.772641	65.489492	46.335821
-0.445000	-160.147433	-5.066637	-73.570646	0.053818	-0.167671	-0.041530	106.901524	10.640034	-1.476704	13.994141	8.960174	-26.424312	-42.955107	31.691213	8.781639	45.607216	35.179579	27.073117	4.464259	48.570912	32.180686	20.685774	-4.661340	55.535665	39.838058	10.030077	-9.739862	65.464468	46.334351
-0.435000	-160.147433	-5.066637	-73.570646	0.051825	-0.166079	-0.043621	106.788171	11.313233	-1.567999	13.986682	9.058421	-26.420430	-42.969558	31.668458	8.711379	45.583004	35.487198	27.174573	4.476540	48.506243	32.138073	20.877714	-4.624209	55.257655	40.108956	10.201011	-9.718830	65.391728	46.331716
-0.425000	-160.147433	-5.066637	-73.570646	0.049434	-0.164190	-0.045958	106.585659	12.085181	-1.749765	13.960991	9.186629	-26.387689	-42.941704	31.620849	8.616087	45.581475	35.797560	27.250500	4.483616	48.474026	32.105146	21.100296	-4.577561	54.952544	40.338634	10.419031	-9.715800	65.274679	46.321646
-0.415000	-160.147433	-5.066637	-73.570646	0.046621	-0.161988	-0.048522	106.313620	12.950044	-2.035282	13.908160	9.328536	-26.318305	-42.855179	31.572662	8.516107	45.601299	36.057447	27.315174	4.483037	48.484802	32.086609	21.387791	-4.527950	54.630552	40.468660	10.699676	-9.733846	65.117200	46.297409
-0.405000	-160.147433	-5.066637	-73.570646	0.043385	-0.159482	-0.051287	106.007486	13.903864	-2.429320	13.820424	9.466219	-26.220644	-42.721866	31.560423	8.434869	45.614330	36.211180	27.399062	4.472568	48.525543	32.079636	21.774421	-4.482137	54.287006	40.463105	11.061483	-9.772471	64.920279	46.253534
-0.395000	-160.147433	-5.066637	-73.570646	0.039739	-0.156699	-0.054222	105.708895	14.942495	-2.930348	13.694992	9.598838	-26.120862	-42.589040	31.614716	8.390381	45.585053	36.217600	27.536622	4.450925	48.572749	32.079232	22.281057	-4.445859	53.912010	40.320038	11.520241	-9.827518	64.682696	46.187899
-0.385000	-160.147433	-5.066637	-73.570646	0.035700	-0.153683	-0.057303	105.452014	16.057546	-3.530371	13.535737	9.759244	-26.050666	-42.521496	31.743708	8.389035	45.499428	36.069902	27.749598	4.418516	48.611412	32.085786	22.904517	-4.422992	53.507072	40.075716	12.080696	-9.892032	64.406617	46.104780
-0.375000	-160.147433	-5.066637	-73.570646	0.031288	-0.150491	-0.060511	105.251146	17.232067	-4.211557	13.351937	10.015257	-26.023771	-42.561159	31.928904	8.424555	45.382484	35.808550	28.034582	4.378368	48.647511	32.109414	23.616568	-4.415128	53.096964	39.800061	12.732244	-9.958645	64.104743	46.017135
-0.365000	-160.147433	-5.066637	-73.570646	0.026522	-0.147184	-0.063829	105.095694	18.438427	-4.943275	13.155734	10.447243	-26.014402	-42.685061	32.136630	8.482184	45.291585	35.516735	28.362692	4.336809	48.705747	32.167356	24.375254	-4.421675	52.727981	39.580388	13.453553	-10.022785	63.803659	45.945551
-0.355000	-160.147433	-5.066637	-73.570646	0.021420	-0.143840	-0.067241	104.956461	19.641034	-5.684280	12.961438	11.106635	-25.956401	-42.793119	32.336913	8.545264	45.288626	35.295370	28.691419	4.302746	48.814032	32.275623	25.142374	-4.440337	52.451628	39.493948	14.223493	-10.084721	63.539322	45.912955
-0.345000	-160.147433	-5.066637	-73.570646	0.016007	-0.140544	-0.070730	104.802250	20.804543	-6.390628	12.788204	11.975258	-25.772330	-42.745378	32.512331	8.600244	45.407538	35.226373	28.979808	4.284928	48.984796	32.439917	25.894135	-4.467566	52.301126	39.578063	15.027685	-10.148523	63.344280	45.936462
